<?xml version="1.0" standalone="no"?>
<svg viewBox="0 0 200 200" xmlns="http://www.w3.org/2000/svg">
    <!-- Gradient Definition -->
    <defs>
        <linearGradient id="gradient" x1="0%" y1="0%" x2="0%" y2="100%">
            <stop offset="0%" style="stop-color:#00C0F9" />
            <stop offset="100%" style="stop-color:#DC00FE" />
        </linearGradient>
    </defs>
    
    <!-- Path with Gradient Fill -->
    <path fill="url(#gradient)" d="M21.2,-42.6C27.9,-32.9,34,-28,46.2,-21.7C58.4,-15.4,76.8,-7.7,83.7,4C90.6,15.7,86.1,31.4,74.3,38.5C62.5,45.6,43.6,44.1,30,49.3C16.4,54.4,8.2,66.3,-1.8,69.4C-11.7,72.4,-23.4,66.6,-35.2,60.4C-47,54.2,-58.9,47.5,-60.4,37.4C-61.8,27.3,-52.7,13.6,-49,2.1C-45.4,-9.4,-47.2,-18.9,-43.4,-24.9C-39.6,-30.9,-30.2,-33.5,-22.1,-42.3C-13.9,-51,-6.9,-66,0.2,-66.3C7.3,-66.6,14.6,-52.2,21.2,-42.6Z" transform="translate(100 100)" />
</svg>

